<svg width="60" height="60" viewBox="0 0 512 512" fill="none" xmlns="http://www.w3.org/2000/svg">
<path d="M0 0 C168.96 0 337.92 0 512 0 C512 168.96 512 337.92 512 512 C343.04 512 174.08 512 0 512 C0 343.04 0 174.08 0 0 Z " fill="#1B2146" transform="translate(0,0)"/>
<path d="M0 0 C53.13 0 106.26 0 161 0 C161 0.33 161 0.66 161 1 C160 1.02 158.999 1.04 157.969 1.06 C63.993 2.983 63.993 2.983 30.2 37.259 C16.023 52.377 8.77 71.915 5.312 92.062 C5.193 92.758 5.074 93.453 4.95 94.169 C2.756 107.946 2.851 121.762 2.855 135.67 C2.852 137.842 2.848 140.013 2.845 142.185 C2.836 148.056 2.833 153.926 2.833 159.797 C2.832 163.48 2.83 167.162 2.827 170.845 C2.818 183.736 2.814 196.627 2.815 209.518 C2.815 221.461 2.805 233.403 2.789 245.346 C2.776 255.653 2.771 265.961 2.771 276.268 C2.771 282.399 2.769 288.531 2.758 294.662 C2.611 385.551 2.611 385.551 23 413 C23.509 413.723 24.018 414.446 24.543 415.191 C38.772 434.626 61.028 446.358 84 452 C85.042 452.259 86.085 452.518 87.158 452.785 C98.681 455.368 110.167 455.77 121.938 456.188 C123.989 456.269 126.04 456.352 128.092 456.436 C133.061 456.636 138.03 456.822 143 457 C143 457.66 143 458.32 143 459 C165.904 459.031 188.807 458.942 211.711 458.816 C213.527 458.807 215.343 458.797 217.16 458.787 C224.736 458.745 232.311 458.704 239.887 458.661 C250.555 458.6 261.222 458.542 271.889 458.488 C279.5 458.449 287.11 458.407 294.721 458.363 C299.215 458.337 303.71 458.312 308.204 458.291 C326.943 458.201 345.672 457.996 364.405 457.523 C365.22 457.503 366.035 457.482 366.874 457.461 C375.399 457.244 383.922 456.982 392.443 456.656 C393.142 456.63 393.841 456.603 394.561 456.576 C423.312 455.433 453.239 448.029 475 428 C475.828 427.252 476.655 426.505 477.508 425.734 C503.029 401.54 507.941 368.514 508.912 335.13 C509.278 319.626 509.144 304.107 509.134 288.6 C509.132 283.081 509.134 277.562 509.136 272.044 C509.138 262.782 509.135 253.521 509.13 244.259 C509.125 233.62 509.127 222.98 509.132 212.341 C509.137 203.134 509.137 193.928 509.135 184.721 C509.133 179.254 509.133 173.786 509.136 168.319 C509.19 66.255 509.19 66.255 479.312 34.812 C473.388 29.154 466.841 24.475 460 20 C459.571 19.717 459.571 19.717 457.398 18.285 C422.66 -2.503 376.758 1.549 338 1 C338 0.67 338 0.34 338 0 C395.42 0 452.84 0 512 0 C512 168.96 512 337.92 512 512 C343.04 512 174.08 512 0 512 C0 343.04 0 174.08 0 0 Z " fill="#D4D6DA" transform="translate(0,0)"/>
<path d="M0 0 C10.761 7.303 18.387 16.173 21.476 28.964 C23.099 34.677 23.099 34.677 26.023 36.952 C27.881 37.862 29.756 38.738 31.644 39.585 C42.09 44.996 49.964 54.667 54.789 65.214 C54.967 65.601 54.967 65.601 55.871 67.558 C59.903 78.309 59.383 91.266 54.851 101.714 C51.618 108.592 47.325 113.997 41.789 119.214 C41.187 119.846 40.585 120.477 39.964 121.128 C32.229 128.746 18.409 135.46 7.539 135.526 C3.789 135.214 3.789 135.214 1.789 134.089 C0.292 131.282 0.333 129.336 0.789 126.214 C3.914 123.164 7.175 122.453 11.351 121.464 C22.086 118.529 32.414 112.539 38.253 102.761 C39.535 100.279 40.69 97.781 41.789 95.214 C42.222 94.244 42.655 93.275 43.101 92.276 C45.331 82.345 43.534 72.783 38.503 63.96 C33.813 57.283 27.577 50.924 19.789 48.214 C18.996 49.63 18.204 51.047 17.414 52.464 C16.973 53.253 16.532 54.042 16.078 54.854 C15.652 55.633 15.227 56.412 14.789 57.214 C14.355 57.905 13.922 58.596 13.476 59.308 C13.249 59.937 13.022 60.566 12.789 61.214 C13.687 62.792 13.687 62.792 15.164 64.464 C19.395 70.676 18.801 78.072 17.789 85.214 C15.403 91.364 10.74 96.325 4.789 99.214 C-0.299 100.916 -4.934 101.51 -10.262 101.479 C-11.002 101.481 -11.742 101.483 -12.505 101.485 C-14.055 101.487 -15.606 101.483 -17.156 101.475 C-19.535 101.464 -21.913 101.475 -24.292 101.487 C-25.803 101.486 -27.314 101.483 -28.825 101.479 C-29.18 101.482 -29.18 101.482 -30.981 101.492 C-35.981 101.444 -35.981 101.444 -38.211 99.214 C-38.524 95.714 -38.524 95.714 -38.211 92.214 C-34.6 89.806 -32.896 89.962 -28.602 89.94 C-27.29 89.92 -25.978 89.899 -24.625 89.878 C-22.548 89.855 -20.47 89.839 -18.392 89.833 C-3.709 89.763 -3.709 89.763 1.789 85.214 C4.773 81.116 4.428 76.069 3.789 71.214 C1.886 67.972 0.068 66.417 -2.961 64.214 C-5.211 62.214 -5.211 62.214 -5.583 59.788 C-5.211 57.214 -5.211 57.214 -3.637 55.546 C-3.289 55.295 -3.289 55.295 -1.524 54.026 C3.858 49.61 6.959 44.586 8.265 37.702 C8.716 30.144 5.815 24.206 1.32 18.276 C-6.526 9.661 -18.094 3.866 -29.665 2.937 C-37.383 2.731 -44.05 2.788 -50.176 7.831 C-54.515 11.966 -57.053 14.87 -57.469 21.026 C-57.482 22.606 -57.485 24.185 -57.479 25.765 C-57.483 26.637 -57.488 27.509 -57.493 28.407 C-57.505 31.333 -57.504 34.259 -57.502 37.186 C-57.508 39.282 -57.515 41.377 -57.522 43.473 C-57.54 49.172 -57.545 54.87 -57.546 60.569 C-57.548 65.325 -57.555 70.082 -57.562 74.838 C-57.579 86.061 -57.583 97.284 -57.582 108.507 C-57.581 120.083 -57.602 131.66 -57.634 143.236 C-57.66 153.175 -57.67 163.113 -57.669 173.051 C-57.669 178.987 -57.674 184.922 -57.695 190.858 C-57.715 196.443 -57.715 202.028 -57.7 207.612 C-57.698 209.66 -57.703 211.708 -57.715 213.756 C-57.731 216.556 -57.721 219.355 -57.706 222.154 C-57.711 222.558 -57.711 222.558 -57.737 224.599 C-57.645 232.203 -54.607 238.819 -49.211 244.214 C-37.949 252.33 -26.632 254.748 -12.856 252.897 C-0.036 250.057 10.52 243.041 17.789 232.214 C18.331 231.453 18.874 230.693 19.433 229.909 C21.685 225.432 21.533 220.649 21.871 215.71 C22.789 212.214 22.789 212.214 25.5 209.917 C28.503 208.362 31.512 206.903 34.601 205.526 C45.389 200.166 51.374 192.3 55.789 181.214 C57.501 176.061 58.108 171.332 58.125 165.937 C58.131 165.166 58.138 164.396 58.145 163.603 C58.155 161.983 58.16 160.364 58.159 158.744 C58.164 156.286 58.2 153.83 58.238 151.372 C58.244 149.789 58.248 148.207 58.25 146.624 C58.257 146.262 58.257 146.262 58.293 144.429 C58.25 139.518 57.105 136.178 54.66 131.918 C53.789 130.214 53.789 130.214 53.664 127.651 C55.355 123.987 57.82 120.946 60.789 118.214 C61.449 118.214 62.109 118.214 62.789 118.214 C64.41 120.487 64.41 120.487 66.226 123.589 C66.823 124.587 67.42 125.584 68.035 126.612 C72.837 135.904 73.324 145.015 73.226 155.339 C73.223 156.026 73.219 156.714 73.216 157.422 C73.084 175.965 69.841 191.986 56.726 206.026 C52.536 210.059 48.416 212.591 43.289 215.151 C39.745 216.951 37.225 218.325 35.41 222.022 C34.954 224.066 34.571 226.127 34.261 228.198 C32.498 239.446 23.793 248.478 14.976 255.026 C9.565 258.592 3.855 260.991 -2.211 263.214 C-2.594 263.374 -2.594 263.374 -4.528 264.187 C-16.891 268.809 -32.321 267.36 -44.211 262.214 C-56.631 256.365 -65.756 248.642 -70.574 235.461 C-71.652 231.662 -71.631 227.968 -71.606 224.043 C-71.612 223.153 -71.618 222.263 -71.624 221.346 C-71.641 218.381 -71.636 215.417 -71.631 212.453 C-71.639 210.32 -71.647 208.187 -71.657 206.055 C-71.679 200.273 -71.682 194.493 -71.68 188.711 C-71.68 183.881 -71.689 179.05 -71.697 174.219 C-71.716 162.819 -71.719 151.42 -71.712 140.02 C-71.706 128.271 -71.729 116.522 -71.766 104.772 C-71.796 94.674 -71.808 84.577 -71.804 74.479 C-71.802 68.452 -71.807 62.426 -71.832 56.399 C-71.854 50.731 -71.852 45.063 -71.832 39.394 C-71.828 37.318 -71.834 35.242 -71.848 33.166 C-71.925 21.192 -71.935 12.021 -63.899 2.464 C-63.455 2.093 -63.455 2.093 -61.211 0.214 C-60.93 -0.032 -60.93 -0.032 -59.504 -1.274 C-42.158 -15.512 -17.833 -11.223 0 0 Z " fill="#F6F7F8" transform="translate(335.21142578125,98.7861328125)"/>
<path d="M0 0 C6.257 4.555 11.134 10.084 14.125 17.25 C14.549 20.238 14.539 23.19 14.519 26.205 C14.526 27.096 14.532 27.987 14.538 28.905 C14.554 31.885 14.55 34.864 14.545 37.844 C14.552 39.983 14.561 42.122 14.571 44.261 C14.593 50.069 14.596 55.877 14.594 61.686 C14.594 66.539 14.602 71.392 14.611 76.245 C14.63 87.7 14.633 99.155 14.626 110.61 C14.619 122.413 14.642 134.215 14.679 146.018 C14.71 156.161 14.721 166.304 14.717 176.447 C14.715 182.5 14.721 188.553 14.745 194.607 C14.768 200.305 14.766 206.002 14.745 211.701 C14.742 213.785 14.747 215.87 14.761 217.955 C14.854 232.455 13.959 244.3 3.352 255.285 C-3.426 261.266 -11.312 264.615 -19.875 267.25 C-20.602 267.477 -21.329 267.704 -22.078 267.938 C-36.774 271.856 -52.399 268.809 -65.75 262.062 C-78.887 254.405 -88.745 243.098 -92.875 228.25 C-93.413 224.656 -93.569 221.556 -91.812 218.25 C-88.743 216.666 -86.258 216.888 -82.875 217.25 C-79.724 219.548 -79.057 222.283 -78 225.938 C-76.285 231.344 -74.199 235.677 -70.875 240.25 C-70.535 240.755 -70.535 240.755 -68.812 243.312 C-62.523 250.528 -52.191 254.91 -42.875 256.25 C-28.894 257.163 -19.126 255.85 -7.875 247.25 C-2.545 242.352 1.153 236.482 1.508 229.119 C1.527 227.565 1.53 226.012 1.519 224.458 C1.526 223.597 1.532 222.736 1.538 221.849 C1.554 218.975 1.55 216.102 1.545 213.229 C1.552 211.164 1.561 209.099 1.571 207.033 C1.593 201.432 1.596 195.831 1.594 190.23 C1.594 185.55 1.602 180.871 1.611 176.191 C1.63 165.15 1.633 154.109 1.626 143.067 C1.619 131.684 1.642 120.302 1.679 108.919 C1.71 99.139 1.721 89.358 1.717 79.578 C1.715 73.74 1.721 67.902 1.745 62.064 C1.768 56.573 1.766 51.082 1.745 45.591 C1.742 43.579 1.747 41.567 1.761 39.555 C1.894 19.544 1.894 19.544 -3.875 13.25 C-11.781 6.215 -19.768 5.626 -29.96 6.106 C-40.683 6.91 -50.114 12.954 -57.312 20.688 C-62.467 26.953 -65.704 32.347 -65.32 40.664 C-64.198 47.183 -61.309 52.418 -56.062 56.438 C-53.227 58.65 -52.933 59.019 -52 62.75 C-53.082 67.077 -54.747 68.408 -58.246 70.988 C-59.875 72.25 -59.875 72.25 -60.875 74.25 C-61.378 79.367 -61.716 83.778 -59.125 88.312 C-55.476 91.454 -52.693 92.488 -47.891 92.664 C-47.048 92.7 -46.205 92.735 -45.337 92.772 C-44.807 92.789 -44.807 92.789 -42.125 92.875 C-40.434 92.937 -40.434 92.937 -31.875 93.25 C-31.875 80.05 -31.875 66.85 -31.875 53.25 C-33.195 52.59 -34.515 51.93 -35.875 51.25 C-37.981 49.37 -38.766 47.954 -39.199 45.164 C-39.392 41.169 -39.209 38.832 -37.188 35.312 C-33.069 31.639 -29.416 30.783 -23.867 30.93 C-19.662 31.606 -16.915 34.21 -14 37.125 C-12.425 40.1 -12.409 41.92 -12.875 45.25 C-14.641 48.31 -16.381 50.756 -18.875 53.25 C-19.14 55.337 -19.14 55.337 -19.162 57.943 C-19.169 58.431 -19.169 58.431 -19.203 60.896 C-19.208 61.951 -19.213 63.007 -19.219 64.094 C-19.233 65.174 -19.248 66.254 -19.263 67.367 C-19.31 70.828 -19.344 74.289 -19.375 77.75 C-19.416 82.302 -19.47 86.854 -19.531 91.406 C-19.537 92.461 -19.542 93.517 -19.547 94.604 C-19.554 95.091 -19.554 95.091 -19.588 97.557 C-19.595 98.417 -19.602 99.277 -19.61 100.163 C-19.875 102.25 -19.875 102.25 -21.875 104.25 C-24.483 104.499 -26.981 104.626 -29.594 104.656 C-30.366 104.668 -31.139 104.679 -31.935 104.691 C-33.576 104.71 -35.216 104.723 -36.857 104.73 C-39.339 104.75 -41.816 104.812 -44.297 104.875 C-54.609 105.012 -61.538 103.98 -69.467 96.811 C-73.962 92.015 -75.997 86.158 -76.25 79.688 C-76.031 73.638 -73.777 68.895 -69.875 64.25 C-71.048 61.708 -72.366 59.521 -73.938 57.188 C-75.875 54.25 -75.875 54.25 -76.875 51.25 C-85.36 54.048 -92.455 61.615 -96.973 69.168 C-100.903 78.237 -101.7 89.172 -98.848 98.672 C-97.408 101.751 -95.807 104.455 -93.875 107.25 C-93.268 108.133 -92.661 109.016 -92.035 109.926 C-86.054 117.491 -76.342 123.926 -66.668 125.641 C-64.739 125.864 -62.807 126.059 -60.875 126.25 C-58.875 127.438 -58.875 127.438 -57.875 129.25 C-57.438 132.25 -57.438 132.25 -57.875 135.25 C-60.041 137.849 -61.542 138.201 -64.875 138.688 C-80.303 137.929 -93.623 127.846 -103.844 117.199 C-112.662 106.931 -116.137 94.884 -115.391 81.555 C-113.991 67.04 -105.417 55.947 -94.867 46.551 C-91.807 44.198 -88.743 42.506 -85.312 40.75 C-80.176 37.938 -80.176 37.938 -78.852 34.914 C-78.574 33.214 -78.356 31.504 -78.195 29.789 C-76.945 19.878 -67.49 10.926 -60.062 5 C-42.009 -7.67 -19.582 -12.086 0 0 Z " fill="#F7F9FA" transform="translate(232.875,95.75)"/>
<path d="M0 0 C53.13 0 106.26 0 161 0 C161 0.33 161 0.66 161 1 C160 1.02 158.999 1.04 157.969 1.06 C63.993 2.983 63.993 2.983 30.2 37.259 C16.023 52.377 8.77 71.915 5.312 92.062 C5.193 92.758 5.074 93.453 4.95 94.169 C3.026 106.248 2.764 118.502 2.457 130.708 C2.437 131.5 2.416 132.292 2.394 133.108 C1.905 152.033 1.782 170.958 1.697 189.887 C1.674 194.665 1.647 199.443 1.621 204.221 C1.571 213.201 1.526 222.181 1.483 231.161 C1.433 241.413 1.378 251.666 1.323 261.918 C1.21 282.945 1.103 303.973 1 325 C0.67 325 0.34 325 0 325 C0 217.75 0 110.5 0 0 Z " fill="#F0F1F3" transform="translate(0,0)"/>
<path d="M0 0 C57.42 0 114.84 0 174 0 C174 89.76 174 179.52 174 272 C173.67 272 173.34 272 173 272 C172.998 271.716 172.998 271.716 172.99 270.278 C172.907 256.183 172.815 242.087 172.712 227.992 C172.663 221.174 172.617 214.357 172.578 207.539 C172.42 180.211 172.177 152.899 171.086 125.59 C171.067 125.091 171.067 125.091 170.97 122.566 C170.39 107.798 169.737 92.843 165.875 78.5 C165.769 78.106 165.769 78.106 165.233 76.111 C158.373 52.09 142.656 33.51 122 20 C121.141 19.434 120.283 18.868 119.398 18.285 C84.66 -2.503 38.758 1.549 0 1 C0 0.67 0 0.34 0 0 Z " fill="#EFF0F3" transform="translate(338,0)"/>
<path d="M0 0 C5.428 4.544 5.428 4.544 6.125 9.125 C5.46 13.875 3.023 16.915 -0.312 20.25 C-0.578 22.337 -0.578 22.337 -0.6 24.943 C-0.606 25.431 -0.606 25.431 -0.64 27.896 C-0.646 28.951 -0.651 30.007 -0.656 31.094 C-0.671 32.174 -0.685 33.254 -0.701 34.367 C-0.747 37.828 -0.781 41.289 -0.812 44.75 C-0.854 49.302 -0.907 53.854 -0.969 58.406 C-0.974 59.461 -0.979 60.517 -0.985 61.604 C-0.991 62.091 -0.991 62.091 -1.025 64.557 C-1.033 65.417 -1.04 66.277 -1.047 67.163 C-1.312 69.25 -1.312 69.25 -3.312 71.25 C-5.921 71.499 -8.419 71.626 -11.031 71.656 C-11.804 71.668 -12.576 71.679 -13.372 71.691 C-15.013 71.71 -16.654 71.723 -18.295 71.73 C-20.776 71.75 -23.254 71.812 -25.734 71.875 C-36.047 72.012 -42.975 70.98 -50.904 63.811 C-55.399 59.015 -57.434 53.158 -57.688 46.688 C-57.455 40.805 -55.608 36.666 -51.625 32.312 C-51.243 31.972 -51.243 31.972 -49.312 30.25 C-46.813 32.562 -46.813 32.562 -44.312 35.25 C-44.312 36.24 -44.312 37.23 -44.312 38.25 C-43.322 38.58 -42.333 38.91 -41.312 39.25 C-41.643 39.91 -41.972 40.57 -42.312 41.25 C-42.815 46.367 -43.154 50.778 -40.562 55.312 C-36.914 58.454 -34.131 59.488 -29.328 59.664 C-28.485 59.7 -27.643 59.735 -26.774 59.772 C-25.714 59.806 -24.655 59.84 -23.562 59.875 C-21.871 59.937 -21.871 59.937 -13.312 60.25 C-13.312 47.05 -13.312 33.85 -13.312 20.25 C-14.632 19.59 -15.952 18.93 -17.312 18.25 C-19.418 16.37 -20.203 14.954 -20.637 12.164 C-20.829 8.169 -20.647 5.832 -18.625 2.312 C-13.117 -2.6 -6.482 -3.425 0 0 Z " fill="#2CF8F8" transform="translate(214.3125,128.75)"/>
<path d="M0 0 C3.839 1.99 6.997 4.106 9 8 C9.562 12.333 9.298 14.456 7.188 18.312 C5 21 5 21 2 23 C0.59 32.387 1.686 42.418 7.297 50.176 C13.396 57.49 19.962 61.987 29 65 C31.175 65.128 33.353 65.202 35.531 65.246 C36.174 65.263 36.174 65.263 39.426 65.346 C41.467 65.393 43.507 65.438 45.548 65.477 C47.522 65.517 49.495 65.569 51.469 65.621 C52.059 65.634 52.059 65.634 55.045 65.697 C58 66 58 66 61 68 C61.386 71.024 61.618 73.066 59.897 75.667 C57.059 77.662 54.716 77.389 51.277 77.398 C50.617 77.401 49.957 77.404 49.277 77.407 C47.877 77.409 46.478 77.404 45.078 77.391 C42.969 77.375 40.861 77.391 38.752 77.41 C22.932 77.435 11.75 73.095 0.227 62.25 C-8.207 53.728 -12.143 42.841 -12.088 30.873 C-12.08 30.152 -12.071 29.431 -12.062 28.688 C-12.058 27.947 -12.053 27.206 -12.049 26.443 C-12.037 24.629 -12.019 22.814 -12 21 C-12.99 20.67 -13.98 20.34 -15 20 C-17.656 15.927 -17.689 11.704 -17 7 C-12.968 0.233 -7.459 -1.062 0 0 Z " fill="#F7F7F8" transform="translate(115,219)"/>
<path d="M0 0 C2.156 1.52 2.156 1.52 4 4 C4.433 6.876 4.62 9.258 4.562 12.125 C4.552 12.885 4.542 13.644 4.531 14.427 C4.216 22.81 1.35 28.629 -4.188 34.875 C-13.14 42.78 -23.344 42.516 -34.625 42.25 C-36.121 42.23 -37.617 42.212 -39.113 42.195 C-42.743 42.152 -46.371 42.083 -50 42 C-50.276 42.624 -50.552 43.248 -50.836 43.891 C-52.601 47.088 -54.618 47.747 -58 49 C-62.405 49.728 -65.277 49.354 -69.312 47.375 C-72.355 44.686 -73.716 42.852 -75 39 C-75 34.424 -74.524 32.603 -71.5 29.125 C-70.675 28.424 -69.85 27.722 -69 27 C-68.67 26.67 -68.34 26.34 -68 26 C-65.707 25.762 -65.707 25.762 -62.812 25.688 C-61.87 25.65 -60.928 25.613 -59.957 25.574 C-57 26 -57 26 -54.244 27.991 C-49.104 31.174 -44.082 30.633 -38.169 30.576 C-36.136 30.563 -34.107 30.597 -32.074 30.635 C-19.855 30.617 -19.855 30.617 -14.447 26.46 C-9.309 21.276 -9.559 15.457 -9.473 8.658 C-9.306 3.445 -9.306 3.445 -7.652 1.039 C-4.993 -0.633 -3.058 -0.437 0 0 Z " fill="#F7F7F8" transform="translate(212,221)"/>
<path d="M0 0 C2.16 0.973 2.16 0.973 4 3 C4.7 6.7 4.507 10.469 4.488 14.221 C4.586 19.59 5.207 22.881 9 27 C15.446 31.154 22.673 30.48 30.125 30.438 C30.756 30.447 30.756 30.447 33.949 30.498 C34.557 30.498 34.557 30.498 37.633 30.496 C38.184 30.497 38.184 30.497 40.973 30.502 C44.653 29.892 46.238 28.431 49 26 C53.841 25.117 58.487 25.338 63 27.312 C63.66 27.869 64.32 28.426 65 29 C65.263 29.22 65.263 29.22 66.594 30.336 C68.836 32.989 68.53 35.356 68.426 38.711 C67.704 42.592 65.832 44.3 63 47 C59.278 49.481 56.313 49.654 52 49 C49.274 47.942 47.422 46.73 45 45 C44.67 44.01 44.34 43.02 44 42 C43.053 42.026 42.105 42.052 41.129 42.079 C37.57 42.165 34.011 42.228 30.45 42.275 C28.918 42.3 27.386 42.334 25.854 42.377 C15.567 42.663 6.795 42.416 -1.13 35.009 C-7.778 28.079 -9.505 21.6 -9.375 12.25 C-9.387 11.401 -9.398 10.551 -9.41 9.676 C-9.408 9.268 -9.408 9.268 -9.398 7.203 C-9.395 6.467 -9.392 5.732 -9.388 4.974 C-8.367 -0.219 -4.665 -0.571 0 0 Z " fill="#F6F7F8" transform="translate(306,221)"/>
<path d="M0 0 C3.146 2.027 4.905 3.585 6.812 6.812 C7.37 10.219 7.587 12.536 5.754 15.559 C3.98 17.754 2.356 19.541 -0.188 20.812 C-0.188 25.103 -0.188 29.392 -0.188 33.812 C0.754 33.754 1.695 33.696 2.664 33.637 C14.103 33.222 14.103 33.222 17.625 36.188 C21.006 40.245 21.171 42.528 20.812 47.812 C19.136 51.5 17.24 53.67 13.812 55.812 C10.193 57.019 7.62 57.135 3.812 56.812 C-0.034 54.741 -2.975 52.623 -5.188 48.812 C-5.188 47.822 -5.188 46.832 -5.188 45.812 C-5.476 45.72 -5.476 45.72 -6.938 45.25 C-10.377 43.052 -11.985 40.631 -13.188 36.812 C-13.452 33.388 -13.643 30.02 -13.596 26.587 C-13.645 22.585 -14.004 21.025 -16.66 17.945 C-17.494 17.241 -18.328 16.538 -19.188 15.812 C-20.762 12.663 -20.535 10.292 -20.188 6.812 C-15.161 -0.798 -8.746 -3.258 0 0 Z " fill="#F8F8F9" transform="translate(311.1875,277.1875)"/>
<path d="M0 0 C4.705 0.003 9.41 0 14.115 -0.001 C22.017 -0.003 29.919 -0.001 37.821 0.004 C45.811 0.009 53.801 0.009 61.791 0.004 C138.172 -0.041 138.172 -0.041 169.048 0.58 C170.047 0.599 171.045 0.618 172.074 0.638 C181.466 0.829 190.814 1.039 200.154 2.134 C200.154 2.464 200.154 2.794 200.154 3.134 C194.169 4.004 188.369 4.281 182.325 4.267 C181.414 4.268 180.503 4.269 179.564 4.27 C177.651 4.271 175.738 4.269 173.825 4.265 C170.898 4.259 167.971 4.265 165.044 4.271 C163.18 4.27 161.315 4.269 159.45 4.267 C158.577 4.269 157.705 4.271 156.805 4.273 C155.99 4.27 155.176 4.267 154.336 4.264 C153.623 4.263 152.91 4.262 152.175 4.261 C150.154 4.134 150.154 4.134 148.515 3.634 C145.135 2.919 141.786 2.997 138.348 3.007 C137.557 3.006 136.765 3.004 135.95 3.003 C133.295 2.999 130.641 3.002 127.986 3.005 C126.084 3.004 124.182 3.002 122.28 3 C117.11 2.995 111.941 2.997 106.771 3 C101.364 3.003 95.956 3 90.548 2.999 C81.464 2.997 72.38 2.999 63.296 3.004 C52.794 3.009 42.292 3.008 31.79 3.002 C22.776 2.998 13.762 2.997 4.748 3 C-0.637 3.001 -6.022 3.001 -11.406 2.998 C-16.471 2.995 -21.535 2.997 -26.599 3.003 C-28.457 3.004 -30.316 3.004 -32.174 3.002 C-34.712 2.999 -37.249 3.002 -39.787 3.007 C-40.521 3.005 -41.256 3.003 -42.013 3.001 C-46.068 3.016 -49.863 3.398 -53.846 4.134 C-65.849 4.606 -77.867 3.822 -89.846 3.134 C-89.846 2.804 -89.846 2.474 -89.846 2.134 C-79.214 1.346 -68.602 0.855 -57.945 0.58 C-57.156 0.559 -56.367 0.538 -55.554 0.517 C-37.037 0.034 -18.523 -0.014 0 0 Z " fill="#494E79" transform="translate(198.84644675254822,-0.13432550430297852)"/>
<path d="M0 0 C1.855 0.633 1.855 0.633 4.793 2.57 C6.043 6.195 6.043 6.195 6.793 9.57 C7.783 9.9 8.773 10.23 9.793 10.57 C9.154 10.818 8.514 11.065 7.855 11.32 C7.175 11.733 6.494 12.145 5.793 12.57 C5.669 13.168 5.545 13.767 5.418 14.383 C4.397 17.957 1.694 19.424 -1.207 21.57 C-4.826 22.777 -7.399 22.893 -11.207 22.57 C-14.993 20.532 -18.258 18.469 -20.207 14.57 C-20.732 9.849 -20.933 7.723 -18.395 3.695 C-12.956 -1.588 -7.201 -1.402 0 0 Z " fill="#F7F7F8" transform="translate(199.20703125,311.4296875)"/>
<path d="M0 0 C4.625 1.658 7.632 3.642 10 8 C10.451 12.963 9.717 16.117 6.562 20 C2.256 23.361 -0.856 23.388 -6.227 23.359 C-10.521 22.803 -12.133 21.168 -15 18 C-16.73 14.54 -16.484 10.783 -16 7 C-11.852 0.278 -7.429 -0.814 0 0 Z " fill="#28F0F4" transform="translate(210,276)"/>
<path d="M0 0 C4.638 1.695 7.474 3.725 10 8 C10.63 12.333 10.302 14.428 8.25 18.312 C5.484 21.617 3.654 22.788 -0.621 23.336 C-8.227 23.441 -8.227 23.441 -12.062 21.25 C-14.957 17.889 -15.861 16.072 -16.438 11.625 C-15.854 6.787 -14.412 5.412 -11 2 C-7.273 -0.484 -4.316 -0.524 0 0 Z " fill="#F7F7F8" transform="translate(349,276)"/>
<path d="M0 0 C3.432 2.009 6.21 4.421 8 8 C8.134 12.858 7.68 16.141 4.625 20 C0.077 23.465 -4.468 23.689 -10 23 C-13.157 21.393 -15.194 20.026 -17.375 17.25 C-18.338 13.782 -18.701 10.525 -18 7 C-12.893 0.651 -7.962 -1.421 0 0 Z " fill="#2DF9F9" transform="translate(310,127)"/>
<path d="M0 0 C0.66 0.33 1.32 0.66 2 1 C1.55 5.652 1.085 10.297 0.523 14.937 C-0.732 25.312 -1.395 35.576 -1.605 46.02 C-1.643 47.62 -1.68 49.22 -1.718 50.82 C-2.125 68.84 -2.222 86.863 -2.303 104.887 C-2.326 109.665 -2.353 114.443 -2.379 119.221 C-2.429 128.201 -2.474 137.181 -2.517 146.161 C-2.567 156.413 -2.622 166.666 -2.677 176.918 C-2.79 197.945 -2.897 218.973 -3 240 C-3.33 240 -3.66 240 -4 240 C-4 167.07 -4 94.14 -4 19 C-3.67 19 -3.34 19 -3 19 C-2.867 18.131 -2.734 17.262 -2.598 16.367 C-2.421 15.215 -2.244 14.062 -2.062 12.875 C-1.888 11.738 -1.714 10.601 -1.535 9.43 C-1.044 6.283 -0.53 3.141 0 0 Z " fill="#E3E5ED" transform="translate(4,85)"/>
<path d="M0 0 C1.072 0.743 2.145 1.485 3.25 2.25 C8.263 7.263 10.441 12.485 10.516 19.555 C10.51 19.954 10.51 19.954 10.481 21.972 C10.484 22.841 10.488 23.709 10.491 24.604 C10.498 27.496 10.476 30.386 10.454 33.277 C10.453 35.357 10.454 37.437 10.456 39.517 C10.457 45.151 10.434 50.784 10.406 56.418 C10.381 62.311 10.378 68.203 10.373 74.095 C10.361 85.248 10.328 96.4 10.288 107.552 C10.243 120.251 10.221 132.95 10.201 145.648 C10.16 171.766 10.089 197.883 10 224 C9.67 224 9.34 224 9 224 C9 154.7 9 85.4 9 14 C8.34 14 7.68 14 7 14 C6.328 12.711 5.663 11.419 5 10.125 C4.629 9.406 4.257 8.686 3.875 7.945 C3 6 3 6 3 4 C1.677 3.312 0.34 2.653 -1 2 C-1.959 1.484 -2.918 0.969 -3.906 0.438 C-9.074 -1.767 -14.418 -1.321 -19.938 -1.188 C-20.47 -1.181 -20.47 -1.181 -23.166 -1.146 C-25.778 -1.111 -28.389 -1.062 -31 -1 C-24.404 -7.596 -6.859 -5.103 0 0 Z " fill="#4F5D78" transform="translate(225,105)"/>
<path d="M0 0 C3.969 2.818 6.323 5.626 8.043 10.281 C7.955 14.672 6.413 17.793 3.98 21.406 C1.73 23.406 1.73 23.406 -0.02 24.406 C-0.02 20.478 1.498 19.34 3.98 16.406 C5.407 13.553 5.291 11.572 4.98 8.406 C2.83 5.027 0.857 2.591 -3.02 1.406 C-8.656 0.952 -12.132 1.265 -17.02 4.406 C-19.699 8.425 -19.716 11.683 -19.02 16.406 C-17.226 19.277 -16.037 20.898 -13.02 22.406 C-13.02 35.606 -13.02 48.806 -13.02 62.406 C-16.402 62.468 -19.785 62.53 -23.27 62.594 C-23.799 62.607 -23.799 62.607 -26.481 62.677 C-26.903 62.68 -26.903 62.68 -29.035 62.699 C-29.465 62.707 -29.465 62.707 -31.638 62.747 C-34.02 62.406 -34.02 62.406 -38.02 59.406 C-30.43 59.736 -22.84 60.066 -15.02 60.406 C-15.35 57.436 -15.68 54.466 -16.02 51.406 C-16.042 49.13 -16.018 46.853 -15.941 44.578 C-15.916 43.366 -15.89 42.155 -15.863 40.906 C-15.8 38.39 -15.722 35.874 -15.629 33.359 C-15.474 24.306 -15.474 24.306 -17.15 21.541 C-18.535 20.234 -18.535 20.234 -21.02 18.406 C-21.02 17.416 -21.02 16.426 -21.02 15.406 C-21.68 15.076 -22.34 14.746 -23.02 14.406 C-21.127 5.103 -21.127 5.103 -17.02 1.406 C-10.906 -2.35 -6.441 -3.557 0 0 Z " fill="#0E5876" transform="translate(214.01953125,126.59375)"/>
<path d="M0 0 C0.66 0.33 1.32 0.66 2 1 C2 55.45 2 109.9 2 166 C1.67 166 1.34 166 1 166 C0.996 165.409 0.992 164.818 0.987 164.209 C0.883 149.705 0.774 135.2 0.661 120.696 C0.606 113.682 0.552 106.667 0.503 99.653 C0.455 92.864 0.402 86.075 0.347 79.287 C0.327 76.716 0.308 74.146 0.291 71.576 C0.193 57.079 -0.091 42.619 -0.78 28.137 C-1.217 18.712 -1.5 9.343 0 0 Z " fill="#E1E4EB" transform="translate(510,106)"/>
<path d="M0 0 C1.762 2.555 1.762 2.555 3.688 5.875 C4.331 6.966 4.974 8.056 5.637 9.18 C6.087 10.11 6.536 11.041 7 12 C6.67 12.66 6.34 13.32 6 14 C4.335 14.342 2.668 14.674 1 15 C-2.771 18.771 -2.195 23.526 -2.316 28.609 C-2.337 29.336 -2.358 30.063 -2.379 30.812 C-2.445 33.124 -2.504 35.437 -2.562 37.75 C-2.606 39.322 -2.649 40.893 -2.693 42.465 C-2.8 46.31 -2.902 50.155 -3 54 C-3.33 54 -3.66 54 -4 54 C-4.009 53.012 -4.019 52.024 -4.028 51.006 C-4.068 47.308 -4.134 43.611 -4.208 39.913 C-4.236 38.319 -4.257 36.724 -4.271 35.13 C-4.421 19.161 -4.421 19.161 -9 12 C-9.225 7.391 -6.352 4.674 -3.473 1.355 C-2 0 -2 0 0 0 Z " fill="#8D92B0" transform="translate(398,217)"/>
<path d="M0 0 C3.969 2.818 6.323 5.626 8.043 10.281 C7.955 14.672 6.413 17.793 3.98 21.406 C1.73 23.406 1.73 23.406 -0.02 24.406 C-0.02 20.478 1.498 19.34 3.98 16.406 C5.407 13.553 5.291 11.572 4.98 8.406 C2.83 5.027 0.857 2.591 -3.02 1.406 C-8.656 0.952 -12.132 1.265 -17.02 4.406 C-19.704 8.433 -19.712 11.673 -19.02 16.406 C-17.918 18.763 -16.688 20.373 -15.02 22.406 C-17.488 21.255 -19.067 20.358 -21.02 18.406 C-21.02 17.416 -21.02 16.426 -21.02 15.406 C-21.68 15.076 -22.34 14.746 -23.02 14.406 C-21.127 5.103 -21.127 5.103 -17.02 1.406 C-10.906 -2.35 -6.441 -3.557 0 0 Z " fill="#0A5480" transform="translate(214.01953125,126.59375)"/>
<path d="M0 0 C2.84 0.067 5.41 0.283 8.125 1.188 C8.517 3.851 8.531 5.58 7.012 7.855 C5.761 9.339 4.446 10.767 3.125 12.188 C1.312 12.125 1.312 12.125 -0.875 11.188 C-2.5 7.75 -2.5 7.75 -3.875 4.188 C-4.535 3.527 -5.195 2.868 -5.875 2.188 C-3.875 0.188 -3.875 0.188 0 0 Z " fill="#727799" transform="translate(206.875,309.8125)"/>
<path d="M0 0 C0 0.66 0 1.32 0 2 C-2.506 1.002 -5.008 -0.003 -7.5 -1.035 C-8.325 -1.374 -9.15 -1.713 -10 -2.062 C-10.825 -2.404 -11.65 -2.746 -12.5 -3.098 C-25.388 -7.749 -38.811 -5.271 -51 0 C-52.67 0.995 -54.338 1.993 -56 3 C-56.66 3 -57.32 3 -58 3 C-58 2.34 -58 1.68 -58 1 C-39.319 -8.884 -18.661 -11.764 0 0 Z " fill="#284675" transform="translate(235,95)"/>
<path d="M0 0 C1.32 0 2.64 0 4 0 C4.66 1.98 5.32 3.96 6 6 C5.618 5.969 5.618 5.969 3.688 5.812 C1 6 1 6 -0.75 7.25 C-3.573 11.202 -3.205 15.922 -3.316 20.609 C-3.337 21.336 -3.358 22.063 -3.379 22.812 C-3.445 25.124 -3.504 27.437 -3.562 29.75 C-3.606 31.322 -3.649 32.893 -3.693 34.465 C-3.8 38.31 -3.902 42.155 -4 46 C-4.33 46 -4.66 46 -5 46 C-5.267 40.681 -5.5 35.361 -5.702 30.039 C-5.775 28.23 -5.858 26.421 -5.95 24.613 C-6.081 22.009 -6.178 19.406 -6.27 16.801 C-6.317 15.995 -6.365 15.19 -6.414 14.36 C-6.53 10.022 -6.484 8.564 -3.546 5.137 C-2.706 4.432 -1.866 3.727 -1 3 C-0.67 2.01 -0.34 1.02 0 0 Z " fill="#A8A9B7" transform="translate(399,225)"/>
<path d="M0 0 C1.714 0.005 3.428 0.01 5.143 0.014 C9.283 0.025 13.423 0.042 17.562 0.062 C13.855 2.534 11.952 2.137 7.562 2.062 C6.643 2.224 5.724 2.385 4.777 2.551 C-7.917 4.571 -21.666 2.795 -34.438 2.062 C-34.438 1.732 -34.438 1.402 -34.438 1.062 C-22.939 0.104 -11.532 -0.06 0 0 Z " fill="#454B75" transform="translate(143.4375,0.9375)"/>
<path d="M0 0 C0.572 0.409 1.145 0.817 1.734 1.238 C4.627 3.463 6.9 5.478 8 9 C8.125 11.75 8.125 11.75 8 14 C3 6.5 3 6.5 3 4 C1.677 3.312 0.34 2.653 -1 2 C-1.959 1.484 -2.918 0.969 -3.906 0.438 C-9.074 -1.767 -14.418 -1.321 -19.938 -1.188 C-20.47 -1.181 -20.47 -1.181 -23.166 -1.146 C-25.778 -1.111 -28.389 -1.062 -31 -1 C-24.422 -7.578 -6.836 -5.127 0 0 Z " fill="#305989" transform="translate(225,105)"/>
<path d="M0 0 C19.14 0 38.28 0 58 0 C58 0.33 58 0.66 58 1 C56.989 1.025 55.978 1.05 54.937 1.076 C17.928 2 17.928 2 0 3 C0 2.01 0 1.02 0 0 Z " fill="#DBDEEC" transform="translate(103,0)"/>
<path d="M0 0 C-0.66 0.66 -1.32 1.32 -2 2 C-2.99 1.67 -3.98 1.34 -5 1 C-6.48 0.854 -7.964 0.753 -9.449 0.684 C-10.297 0.642 -11.144 0.6 -12.018 0.557 C-12.899 0.517 -13.78 0.478 -14.688 0.438 C-15.58 0.394 -16.473 0.351 -17.393 0.307 C-19.595 0.201 -21.797 0.099 -24 0 C-24.33 0.99 -24.66 1.98 -25 3 C-26.658 4.014 -28.327 5.011 -30 6 C-30.887 6.887 -31.774 7.774 -32.688 8.688 C-33.451 9.451 -34.214 10.214 -35 11 C-35.66 11 -36.32 11 -37 11 C-35.587 7.727 -33.92 5.724 -31.25 3.375 C-30.595 2.785 -29.94 2.194 -29.266 1.586 C-21.165 -4.085 -8.95 -3.409 0 0 Z " fill="#2D5180" transform="translate(316,103)"/>
<path d="M0 0 C4.763 1.121 6.758 3.815 9.57 7.539 C13.277 13.919 14.443 19.413 14.293 26.656 C14.289 27.444 14.284 28.232 14.28 29.043 C14.263 31.529 14.226 34.014 14.188 36.5 C14.172 38.198 14.159 39.896 14.146 41.594 C14.114 45.729 14.062 49.865 14 54 C13.67 54 13.34 54 13 54 C13.001 53.003 13.002 52.005 13.003 50.978 C13 47.22 12.957 43.463 12.902 39.706 C12.884 38.09 12.877 36.474 12.88 34.859 C12.897 20.66 10.08 10.56 0 0 Z " fill="#0D487D" transform="translate(235,97)"/>
<path d="M0 0 C2.5 1.5 2.5 1.5 4 3 C2.124 3 0.247 2.99 -1.629 2.965 C-2.597 2.956 -3.565 2.947 -4.562 2.938 C-5.533 2.926 -6.504 2.914 -7.504 2.902 C-10 3 -10 3 -12 4 C-13.125 6.062 -13.125 6.062 -14 8 C-14.66 8 -15.32 8 -16 8 C-15.34 11.63 -14.68 15.26 -14 19 C-17.431 15.569 -17.431 15.569 -17.438 11.625 C-17.319 8.311 -17.014 7.025 -15.312 4.062 C-10.511 -0.22 -6.208 -0.493 0 0 Z " fill="#41E7F1" transform="translate(211,127)"/>
<path d="M0 0 C0.66 0.33 1.32 0.66 2 1 C2 1.66 2 2.32 2 3 C1.01 3.33 0.02 3.66 -1 4 C-5.78 11.17 -4.419 20.842 -3 29 C-7.283 23.786 -7.623 18.577 -7 12 C-5.412 7.237 -3.306 3.762 0 0 Z " fill="#44E3EB" transform="translate(164,159)"/>
<path d="M0 0 C0 0.66 0 1.32 0 2 C-1.789 3.005 -3.581 4.004 -5.375 5 C-6.373 5.557 -7.37 6.114 -8.398 6.688 C-11 8 -11 8 -13 8 C-13.248 8.578 -13.495 9.155 -13.75 9.75 C-15.183 12.329 -16.784 14.061 -19 16 C-19.66 16 -20.32 16 -21 16 C-17.971 8.821 -8.061 0 0 0 Z " fill="#365781" transform="translate(194,104)"/>
<path d="M0 0 C1.32 0 2.64 0 4 0 C4 0.66 4 1.32 4 2 C4.99 2.33 5.98 2.66 7 3 C8.642 5.493 9.495 8.066 10 11 C8.699 15.668 7.225 18.523 3 21 C3.467 18.82 3.958 17.074 5.062 15.125 C6.356 12.192 6.389 10.178 6 7 C4.195 4.353 2.259 2.259 0 0 Z " fill="#082B47" transform="translate(213,277)"/>
<path d="M0 0 C0.66 1.32 1.32 2.64 2 4 C1.608 4.206 1.608 4.206 -0.375 5.25 C-3 7 -3 7 -4.062 9.125 C-5 11 -5 11 -7.125 11.75 C-7.434 11.791 -7.434 11.791 -9 12 C-8.727 7.501 -5.145 0 0 0 Z " fill="#7B80A2" transform="translate(398,217)"/>
<path d="M0 0 C2.101 3.152 2.235 3.635 2.012 7.168 C1.965 7.979 1.918 8.791 1.869 9.627 C1.809 10.472 1.749 11.317 1.688 12.188 C1.639 13.013 1.591 13.839 1.541 14.689 C1.221 19.826 0.688 24.901 0 30 C-0.33 30 -0.66 30 -1 30 C-1.025 26.049 -1.043 22.098 -1.055 18.147 C-1.062 16.141 -1.075 14.135 -1.088 12.129 C-1.091 10.872 -1.094 9.615 -1.098 8.32 C-1.103 7.158 -1.108 5.995 -1.114 4.797 C-1 2 -1 2 0 0 Z " fill="#1E5286" transform="translate(278,114)"/>
<path d="M0 0 C3.007 0.322 4.008 1.008 6.188 3.188 C8.276 6.429 9 8.137 9 12 C7.411 16.668 5.395 20.489 1 23 C1 19.072 2.518 17.934 5 15 C6.427 12.147 6.31 10.165 6 7 C4.195 4.353 2.259 2.259 0 0 Z " fill="#075A89" transform="translate(213,128)"/>
<path d="M0 0 C-1.074 0.375 -2.148 0.75 -3.254 1.137 C-17.297 6.153 -17.297 6.153 -23 11 C-22.305 7.219 -22.305 7.219 -19.562 5.25 C-17 4 -17 4 -15 4 C-14.67 3.01 -14.34 2.02 -14 1 C-12.419 0.635 -10.835 0.283 -9.25 -0.062 C-8.368 -0.26 -7.487 -0.457 -6.578 -0.66 C-4.013 -0.998 -2.429 -0.812 0 0 Z " fill="#284D7E" transform="translate(296,89)"/>
<path d="M0 0 C-1.61 4.074 -4.538 6.765 -7.625 9.75 C-8.141 10.257 -8.656 10.763 -9.188 11.285 C-10.454 12.528 -11.726 13.765 -13 15 C-13.99 14.67 -14.98 14.34 -16 14 C-13.716 11.659 -11.422 9.328 -9.125 7 C-8.474 6.332 -7.823 5.665 -7.152 4.977 C-6.527 4.345 -5.902 3.713 -5.258 3.062 C-4.682 2.476 -4.106 1.889 -3.512 1.285 C-2 0 -2 0 0 0 Z " fill="#343862" transform="translate(41,28)"/>
<path d="M0 0 C1.858 0.254 1.858 0.254 4.254 0.777 C5.108 0.961 5.962 1.145 6.842 1.334 C7.291 1.434 7.291 1.434 9.562 1.938 C10.464 2.133 11.366 2.328 12.295 2.529 C14.531 3.014 16.766 3.505 19 4 C19 4.66 19 5.32 19 6 C15.04 5.505 15.04 5.505 -5 3 C-3.68 2.34 -2.36 1.68 -1 1 C-0.67 0.67 -0.34 0.34 0 0 Z " fill="#314774" transform="translate(302,86)"/>
<path d="M0 0 C5.89 1.472 11.998 4.697 15.227 10.023 C16.173 12.443 16.143 14.425 16 17 C11 9.5 11 9.5 11 7 C7.412 5.134 3.722 3.575 0 2 C0 1.34 0 0.68 0 0 Z " fill="#276090" transform="translate(217,102)"/>
<path d="M0 0 C7.097 -0.108 13.961 0.061 21 1 C21 1.33 21 1.66 21 2 C17.535 2.165 17.535 2.165 0 3 C0 2.01 0 1.02 0 0 Z " fill="#E4E6F0" transform="translate(103,0)"/>
<path d="M0 0 C0.825 0.165 0.825 0.165 5 1 C5.268 2.134 5.536 3.269 5.812 4.438 C6.008 5.025 6.008 5.025 7 8 C7.99 8.33 8.98 8.66 10 9 C9.361 9.268 8.721 9.536 8.062 9.812 C6 11 6 11 5 14 C4.867 13.313 4.734 12.626 4.598 11.918 C4.421 11.017 4.244 10.116 4.062 9.188 C3.888 8.294 3.714 7.401 3.535 6.48 C3 4 3 4 2 1 C1.34 0.67 0.68 0.34 0 0 Z " fill="#B8BBCC" transform="translate(199,313)"/>
<path d="M0 0 C0.33 0 0.66 0 1 0 C1.194 2.791 1.381 5.583 1.562 8.375 C1.619 9.169 1.675 9.963 1.732 10.781 C2.113 16.773 2.113 16.773 1 19 C0.774 20.704 0.591 22.413 0.438 24.125 C0.396 24.58 0.396 24.58 0.184 26.883 C0.123 27.581 0.062 28.28 0 29 C-0.33 29 -0.66 29 -1 29 C-1.112 19.273 -0.93 9.696 0 0 Z " fill="#626585" transform="translate(3,101)"/>
<path d="M0 0 C-0.33 0.66 -0.66 1.32 -1 2 C-3.42 2.51 -5.741 2.888 -8.188 3.188 C-8.848 3.282 -9.509 3.377 -10.189 3.475 C-14.351 4.013 -17.906 3.898 -22 3 C-22 2.67 -22 2.34 -22 2 C-7.403 -0.296 -7.403 -0.296 0 0 Z " fill="#3B416E" transform="translate(109,3)"/>
<path d="M0 0 C6.6 0.33 13.2 0.66 20 1 C17.146 3.854 15.099 3.3 11.125 3.312 C9.89 3.329 8.655 3.346 7.383 3.363 C4 3 4 3 0 0 Z " fill="#222437" transform="translate(302,350)"/>
<path d="M0 0 C7.899 -0.911 13.205 2.195 20 6 C20 6.66 20 7.32 20 8 C17.494 7.002 14.992 5.997 12.5 4.965 C11.675 4.626 10.85 4.287 10 3.938 C9.175 3.596 8.35 3.254 7.5 2.902 C5.009 2.003 2.606 1.451 0 1 C0 0.67 0 0.34 0 0 Z " fill="#39648F" transform="translate(215,89)"/>
<path d="M0 0 C4.873 1.147 6.996 3.988 9.773 7.891 C11.324 10.557 11.847 12.932 12 16 C10.275 13.758 8.671 11.496 7.125 9.125 C4.919 5.88 2.551 2.976 0 0 Z " fill="#316491" transform="translate(235,97)"/>
<path d="M0 0 C3 3 3 3 3.398 5.191 C3.391 5.974 3.383 6.756 3.375 7.562 C3.383 8.348 3.39 9.133 3.398 9.941 C3.267 10.621 3.135 11.3 3 12 C2.01 12.66 1.02 13.32 0 14 C0 9.38 0 4.76 0 0 Z " fill="#E3E5EB" transform="translate(509,346)"/>
<path d="M0 0 C0.99 0.33 1.98 0.66 3 1 C4.477 1.092 5.958 1.13 7.438 1.125 C8.199 1.128 8.961 1.13 9.746 1.133 C11.953 1.003 13.88 0.609 16 0 C15.67 0.99 15.34 1.98 15 3 C11.106 4.603 8.813 5.199 4.688 4.188 C3.11 3.491 1.542 2.771 0 2 C0 1.34 0 0.68 0 0 Z " fill="#0C4D77" transform="translate(297,148)"/>
<path d="M0 0 C2.438 0.75 2.438 0.75 5 2 C5.812 4.125 5.812 4.125 6 6 C6.66 6 7.32 6 8 6 C7.67 6.99 7.34 7.98 7 9 C5.109 8.754 5.109 8.754 3 8 C1.953 6.152 1.953 6.152 1.25 3.938 C1.008 3.204 0.765 2.471 0.516 1.715 C0.345 1.149 0.175 0.583 0 0 Z " fill="#8F94AF" transform="translate(203,313)"/>
<path d="M0 0 C1 2 1 2 0.441 3.945 C0.151 4.665 -0.139 5.384 -0.438 6.125 C-0.725 6.849 -1.012 7.574 -1.309 8.32 C-1.537 8.875 -1.765 9.429 -2 10 C-2.66 10 -3.32 10 -4 10 C-4 12.97 -4 15.94 -4 19 C-4.33 19 -4.66 19 -5 19 C-5.728 11.252 -4.352 6.434 0 0 Z " fill="#435B7E" transform="translate(172,120)"/>
<path d="M0 0 C1.32 0 2.64 0 4 0 C2.852 3.443 1.279 4.522 -1.5 6.727 C-3.329 8.279 -4.672 10.009 -6 12 C-5.513 7.617 -4.166 5.968 -1 3 C-0.67 2.01 -0.34 1.02 0 0 Z " fill="#BCBED3" transform="translate(399,225)"/>
<path d="M0 0 C0.66 0 1.32 0 2 0 C2.33 4.29 2.66 8.58 3 13 C2.01 12.67 1.02 12.34 0 12 C0 8.04 0 4.08 0 0 Z " fill="#0B385C" transform="translate(155,171)"/>
<path d="M0 0 C0.33 0 0.66 0 1 0 C1.049 0.603 1.098 1.207 1.148 1.828 C1.223 2.627 1.298 3.427 1.375 4.25 C1.445 5.039 1.514 5.828 1.586 6.641 C2.015 9.086 2.786 10.848 4 13 C3.01 13 2.02 13 1 13 C-1.606 9.091 -1.223 5.539 -1 1 C-0.67 0.67 -0.34 0.34 0 0 Z " fill="#3EE7F1" transform="translate(293,133)"/>
<path d="M0 0 C0.33 0 0.66 0 1 0 C1.168 1.771 1.335 3.542 1.5 5.312 C1.593 6.299 1.686 7.285 1.781 8.301 C2 11 2 11 2 14 C-0.053 12.32 -0.928 11.479 -1.328 8.809 C-1.302 8.026 -1.277 7.244 -1.25 6.438 C-1.235 5.652 -1.219 4.867 -1.203 4.059 C-1 2 -1 2 0 0 Z " fill="#39DCE6" transform="translate(195,281)"/>
<path d="M0 0 C0.99 0 1.98 0 3 0 C3 0.66 3 1.32 3 2 C2.01 2 1.02 2 0 2 C-0.041 2.557 -0.082 3.114 -0.125 3.688 C-1.469 7.24 -4.01 8.71 -7 11 C-7 10.01 -7 9.02 -7 8 C-6.01 7.34 -5.02 6.68 -4 6 C-3.67 5.01 -3.34 4.02 -3 3 C-2.34 3 -1.68 3 -1 3 C-0.67 2.01 -0.34 1.02 0 0 Z " fill="#A3A6C0" transform="translate(399,223)"/>
<path d="M0 0 C0.66 0.66 1.32 1.32 2 2 C1.758 5.039 1.758 5.039 1.125 8.625 C0.921 9.814 0.718 11.002 0.508 12.227 C0.34 13.142 0.173 14.057 0 15 C-0.66 15 -1.32 15 -2 15 C-1.858 13.25 -1.711 11.5 -1.562 9.75 C-1.481 8.775 -1.4 7.801 -1.316 6.797 C-1.049 4.435 -0.646 2.281 0 0 Z " fill="#34385E" transform="translate(7,79)"/>
<path d="M0 0 C3.667 3.667 7.333 7.333 11 11 C10.67 11.66 10.34 12.32 10 13 C8.324 11.405 6.66 9.799 5 8.188 C4.536 7.741 4.536 7.741 2.188 5.48 C0 3 0 3 0 0 Z " fill="#262834" transform="translate(26,416)"/>
<path d="M0 0 C0.33 0.66 0.66 1.32 1 2 C-2.407 9.066 -2.407 9.066 -7 11 C-6.213 9.539 -5.42 8.082 -4.625 6.625 C-4.184 5.813 -3.743 5.001 -3.289 4.164 C-2 2 -2 2 0 0 Z " fill="#222335" transform="translate(368,333)"/>
<path d="M0 0 C0.66 0.33 1.32 0.66 2 1 C1.036 11.558 1.036 11.558 0 16 C-0.33 16 -0.66 16 -1 16 C-1.027 13.896 -1.046 11.792 -1.062 9.688 C-1.074 8.516 -1.086 7.344 -1.098 6.137 C-1 3 -1 3 0 0 Z " fill="#C8CCDC" transform="translate(4,85)"/>
<path d="M0 0 C2.64 0.33 5.28 0.66 8 1 C8 2.65 8 4.3 8 6 C4.745 5.651 3.981 4.979 1.75 2.438 C1.173 1.633 0.595 0.829 0 0 Z " fill="#55597D" transform="translate(207,310)"/>
<path d="M0 0 C0.66 0.33 1.32 0.66 2 1 C2 1.66 2 2.32 2 3 C1.01 3.33 0.02 3.66 -1 4 C-2.945 6.918 -3.453 8.625 -4 12 C-4.66 12 -5.32 12 -6 12 C-5.598 6.371 -3.711 3.996 0 0 Z " fill="#50DFE9" transform="translate(164,159)"/>
<path d="M0 0 C-1.583 4.274 -4.506 6.265 -8 9 C-8 6 -8 6 -6.758 4.395 C-6.488 4.133 -6.488 4.133 -5.125 2.812 C-4.591 2.283 -4.058 1.753 -3.508 1.207 C-2 0 -2 0 0 0 Z " fill="#2F375C" transform="translate(149,151)"/>
<path d="M0 0 C3 3 3 3 3.375 5.938 C3 9 3 9 0 13 C0 8.71 0 4.42 0 0 Z " fill="#36DCEA" transform="translate(217,132)"/>
<path d="M0 0 C1.161 0.009 2.323 0.018 3.52 0.027 C4.4 0.039 5.28 0.051 6.188 0.062 C6.188 0.392 6.188 0.723 6.188 1.062 C5.88 1.093 5.88 1.093 4.324 1.246 C3.516 1.33 2.708 1.414 1.875 1.5 C1.074 1.581 0.274 1.662 -0.551 1.746 C-2.812 2.062 -2.812 2.062 -5.812 3.062 C-7.821 2.787 -9.824 2.46 -11.812 2.062 C-11.812 1.733 -11.812 1.402 -11.812 1.062 C-7.815 0.106 -4.104 -0.041 0 0 Z " fill="#9B9EAA" transform="translate(389.8125,456.9375)"/>
<path d="M0 0 C0.99 0 1.98 0 3 0 C1.902 2.993 1.323 3.846 -1.625 5.25 C-2.409 5.498 -3.192 5.745 -4 6 C-2.848 3.532 -1.952 1.952 0 0 Z " fill="#ECECF2" transform="translate(400,230)"/>
<path d="M0 0 C0.66 0 1.32 0 2 0 C0.645 4.877 -1.717 6.486 -6 9 C-4.472 5.562 -2.498 2.81 0 0 Z " fill="#6B6F94" transform="translate(396,217)"/>
<path d="M0 0 C0.99 0.33 1.98 0.66 3 1 C2.048 2.006 1.088 3.005 0.125 4 C-0.409 4.557 -0.942 5.114 -1.492 5.688 C-3 7 -3 7 -5 7 C-3.707 4.116 -2.341 2.128 0 0 Z " fill="#2E4A79" transform="translate(178,113)"/>
<path d="M0 0 C0.66 0.33 1.32 0.66 2 1 C-0.64 3.64 -3.28 6.28 -6 9 C-6.66 8.67 -7.32 8.34 -8 8 C-5.333 5.333 -2.667 2.667 0 0 Z " fill="#DDEBF2" transform="translate(277,96)"/>
<path d="M0 0 C3.625 0.188 3.625 0.188 6.625 2.188 C0.225 3.418 0.225 3.418 -2.812 2.25 C-3.328 1.899 -3.844 1.549 -4.375 1.188 C-3.375 0.188 -3.375 0.188 0 0 Z " fill="#464C73" transform="translate(416.375,3.8125)"/>
<path d="M0 0 C3.048 1.524 3.629 3.96 5 7 C5.688 9.375 5.688 9.375 6 11 C3.347 8.524 1.32 6.41 0 3 C0 2.01 0 1.02 0 0 Z " fill="#17182B" transform="translate(156,325)"/>
<path d="M0 0 C-4.229 2.417 -7.123 3.348 -12 3 C-4.821 -1.786 -4.821 -1.786 0 0 Z " fill="#4F537A" transform="translate(80,9)"/>
<path d="M0 0 C0.66 0.33 1.32 0.66 2 1 C-0.31 3.31 -2.62 5.62 -5 8 C-5.33 7.34 -5.66 6.68 -6 6 C-4 4 -2 2 0 0 Z " fill="#CECFD9" transform="translate(144,247)"/>
<path d="M0 0 C3.65 1.734 5.556 3.193 7 7 C0.25 3.25 0.25 3.25 -2 1 C-1.34 0.67 -0.68 0.34 0 0 Z " fill="#2E3045" transform="translate(351,275)"/>
</svg>